<!-- Generated by IcoMoon.io -->
<svg version="1.1" xmlns="http://www.w3.org/2000/svg" width="416" height="448" viewBox="0 0 416 448">
<title>printer</title>
<g id="icomoon-ignore">
</g>
<path fill="#000" d="M96 384h224v-64h-224v64zM96 224h224v-96h-40c-13.25 0-24-10.75-24-24v-40h-160v160zM384 240c0-8.75-7.25-16-16-16s-16 7.25-16 16 7.25 16 16 16 16-7.25 16-16zM416 240v104c0 4.25-3.75 8-8 8h-56v40c0 13.25-10.75 24-24 24h-240c-13.25 0-24-10.75-24-24v-40h-56c-4.25 0-8-3.75-8-8v-104c0-26.25 21.75-48 48-48h16v-136c0-13.25 10.75-24 24-24h168c13.25 0 31.5 7.5 41 17l38 38c9.5 9.5 17 27.75 17 41v64h16c26.25 0 48 21.75 48 48z"></path>
</svg>
