<?xml version="1.0" standalone="no"?>
<!DOCTYPE svg PUBLIC "-//W3C//DTD SVG 20010904//EN"
 "http://www.w3.org/TR/2001/REC-SVG-20010904/DTD/svg10.dtd">
<svg version="1.0" xmlns="http://www.w3.org/2000/svg"
 width="106.000000pt" height="133.000000pt" viewBox="0 0 106.000000 133.000000"
 preserveAspectRatio="xMidYMid meet">

<g transform="translate(0.000000,133.000000) scale(0.100000,-0.100000)"
fill="#000000" stroke="none">
<path d="M117 1093 c-4 -3 -7 -57 -7 -120 l0 -113 30 0 29 0 3 88 3 87 230 0
230 0 3 -122 3 -123 129 0 130 0 0 -310 0 -310 -80 0 -80 0 0 -30 0 -30 110 0
110 0 0 348 0 347 -148 148 -147 147 -271 0 c-149 0 -274 -3 -277 -7z"/>
<path d="M75 818 c-3 -8 -4 -70 -3 -138 l3 -124 189 3 c110 1 198 7 212 13 85
39 83 195 -3 238 -41 21 -391 27 -398 8z m159 -90 c14 -23 -3 -52 -34 -56 -12
-2 -25 -12 -27 -23 -3 -10 -12 -19 -19 -19 -10 0 -14 16 -14 61 l0 60 41 -3
c27 -2 46 -9 53 -20z m108 5 c43 -39 10 -103 -54 -103 l-38 0 0 60 0 60 37 0
c20 0 45 -7 55 -17z m133 2 c0 -5 -15 -11 -32 -13 -42 -4 -43 -22 -2 -22 38 0
35 -24 -4 -28 -19 -2 -27 -9 -27 -23 0 -10 -7 -19 -15 -19 -12 0 -15 13 -15
61 l0 60 48 -3 c26 -2 47 -7 47 -13z"/>
<path d="M170 710 c0 -5 9 -10 21 -10 11 0 17 5 14 10 -3 6 -13 10 -21 10 -8
0 -14 -4 -14 -10z"/>
<path d="M290 690 c0 -25 4 -31 18 -28 11 2 17 12 17 28 0 16 -6 26 -17 28
-14 3 -18 -3 -18 -28z"/>
<path d="M112 318 l3 -203 123 -3 122 -3 0 30 0 30 -92 3 -93 3 -3 173 -2 172
-30 0 -30 0 2 -202z"/>
<path d="M450 361 l0 -100 -36 -3 -35 -3 81 -95 c44 -52 84 -96 88 -98 8 -2
172 182 172 192 0 3 -16 6 -35 6 l-35 0 0 100 0 100 -100 0 -100 0 0 -99z"/>
</g>
</svg>
