<svg aria-hidden="true" xmlns="http://www.w3.org/2000/svg">

<symbol id="e-mail" viewBox="0 0 1000 1000">
<path d="M10,190.6v618.8h980V190.6H10z M948.6,232v30.6L500,578.2L51.4,262.7V232H948.6z M51.4,768V313.3l436.7,307.2c3.6,2.5,7.7,3.8,11.9,3.8c4.2,0,8.3-1.2,11.9-3.8l436.7-307.2V768H51.4L51.4,768z"/>
</symbol>

<symbol id="phone" viewBox="0 0 1000 1000">
<path d="M990,784c0,12.5-2.3,28.9-7,49.1c-4.6,20.2-9.5,36.1-14.6,47.7c-9.7,23.2-38,47.8-84.9,73.8C839.9,978.2,796.7,990,754,990c-12.5,0-24.7-0.8-36.5-2.4c-11.8-1.6-25.2-4.5-40-8.7c-14.8-4.2-25.9-7.5-33.1-10.1c-7.2-2.6-20.1-7.3-38.6-14.3c-18.6-7-29.9-11.1-34.1-12.5c-45.5-16.2-86.1-35.5-121.8-57.8c-59.4-36.7-120.8-86.7-184.1-150c-63.3-63.3-113.3-124.7-150-184.1C93.5,514.4,74.3,473.8,58,428.3c-1.4-4.2-5.6-15.5-12.5-34.1c-7-18.6-11.7-31.4-14.3-38.6c-2.6-7.2-5.9-18.2-10.1-33.1c-4.2-14.8-7.1-28.2-8.7-40S10,258.5,10,246c0-42.7,11.8-85.8,35.5-129.5c26-46.9,50.6-75.2,73.8-84.9c11.6-5.1,27.5-10,47.7-14.6c20.2-4.6,36.5-7,49.1-7c6.5,0,11.4,0.7,14.6,2.1c8.4,2.8,20.6,20.4,36.9,52.9c5.1,8.8,12.1,21.3,20.9,37.6c8.8,16.2,16.9,31,24.4,44.2c7.4,13.2,14.6,25.6,21.6,37.2c1.4,1.9,5.5,7.7,12.2,17.4c6.7,9.7,11.7,18,15,24.7c3.2,6.7,4.9,13.3,4.9,19.8c0,9.3-6.6,20.9-19.8,34.8c-13.2,13.9-27.6,26.7-43.2,38.3c-15.5,11.6-29.9,23.9-43.2,36.9c-13.2,13-19.8,23.7-19.8,32c0,4.2,1.2,9.4,3.5,15.7c2.3,6.3,4.3,11,5.9,14.3c1.6,3.2,4.9,8.8,9.7,16.7s7.5,12.3,8,13.2c35.3,63.6,75.6,118.1,121.1,163.6c45.5,45.5,100,85.8,163.6,121.1c0.9,0.5,5.3,3.1,13.2,8c7.9,4.9,13.5,8.1,16.7,9.7c3.2,1.6,8,3.6,14.3,5.9c6.3,2.3,11.5,3.5,15.7,3.5c8.4,0,19-6.6,32-19.8c13-13.2,25.3-27.6,36.9-43.2c11.6-15.5,24.4-29.9,38.3-43.2s25.5-19.8,34.8-19.8c6.5,0,13.1,1.6,19.8,4.9c6.7,3.2,15,8.2,24.7,15s15.5,10.8,17.4,12.2c11.6,7,24,14.2,37.2,21.6c13.2,7.4,28,15.5,44.2,24.4c16.2,8.8,28.8,15.8,37.6,20.9c32.5,16.2,50.1,28.5,52.9,36.9C989.3,772.6,990,777.5,990,784L990,784z"/>
</symbol>

<symbol id="telegram" viewBox="0 0 1000 1000">
<path d="M798.9,938.3c-7.7,0-15.3-2.3-21.8-6.7L530.7,764.5l-132.2,95.1c-10.4,7.5-23.7,9.3-35.8,5c-12-4.3-21.1-14.3-24.4-26.6L272,586.5L34.9,495.8c-14.9-5.7-24.8-20-24.9-36c-0.1-16,9.6-30.4,24.4-36.3L936,64.8c4.1-1.7,8.4-2.7,12.8-3c1.6-0.1,3.1-0.1,4.7,0c9,0.5,17.9,4.2,24.9,11c0.7,0.7,1.4,1.4,2,2.2c5.7,6.6,8.9,14.6,9.5,22.7c0.1,2,0.1,4.1,0,6.2c-0.1,1.5-0.3,3-0.6,4.4L837,906.8c-2.4,12.8-11.2,23.6-23.2,28.6C809,937.3,804,938.3,798.9,938.3z M552.4,685.4l219.5,148.9L890.3,213L462.6,624.5l88.7,60.2C551.7,684.9,552,685.1,552.4,685.4z M369.7,652.3L399,763.6l63.3-45.6l-82.9-56.2C375.6,659.2,372.3,656,369.7,652.3z M155.5,458.9l162.8,62.2c11.7,4.5,20.5,14.3,23.7,26.3l20.6,78.3c0.9-9,5-17.5,11.7-23.9l407.5-392.1L155.5,458.9z"/>
</symbol>

<symbol id="github" viewBox="0 0 1000 1000">
<path d="M10,512.6c0,213.9,137.1,395.9,328.2,462.7c25.8,6.5,21.8-11.9,21.8-24.3v-84.9c-148.7,17.5-154.6-81-164.6-97.4c-20.2-34.5-67.8-43.2-53.6-59.6c33.8-17.5,68.3,4.4,108.3,63.4c28.9,42.8,85.3,35.6,113.8,28.4c6.2-25.8,19.6-48.7,38-66.6c-153.9-27.4-218.1-121.4-218.1-233.2c0-54.1,17.9-104,52.9-144.2c-22.3-66.4,2.1-123,5.3-131.4c63.6-5.8,129.7,45.5,134.8,49.6c36.1-9.7,77.4-15,123.6-15c46.4,0,87.9,5.3,124.2,15.2c12.3-9.4,73.7-53.4,132.8-48c3.2,8.4,27,63.9,6,129.2c35.5,40.3,53.6,90.5,53.6,144.8c0,112-64.6,206.1-219,233.3c25.8,25.4,41.7,60.7,41.7,99.8v123.2c0.9,9.8,0,19.6,16.5,19.6C850.4,911.9,990,728.6,990,512.7c0-270.7-219.4-490-490-490C229.3,22.6,10,241.9,10,512.6L10,512.6z"/>
</symbol>

<symbol id="location" viewBox="0 0 1000 1000">
<path d="M500,10c-169.4,0-306.3,136.9-306.3,306.3S346.9,714.4,500,990c153.1-275.6,306.3-504.4,306.3-673.8S669.4,10,500,10z M500,438.8c-67.9,0-122.5-54.6-122.5-122.5S432.1,193.8,500,193.8s122.5,54.6,122.5,122.5S567.9,438.8,500,438.8z"/>
</symbol>

</svg>